<?xml version="1.0" encoding="utf-8"?>
<!-- Generator: Adobe Illustrator 23.0.2, SVG Export Plug-In . SVG Version: 6.00 Build 0)  -->
<svg version="1.1" id="图层_1" xmlns="http://www.w3.org/2000/svg" xmlns:xlink="http://www.w3.org/1999/xlink" x="0px" y="0px"
	 viewBox="0 0 200 200" style="enable-background:new 0 0 200 200;" xml:space="preserve">
<g>
	<path d="M4.1,84.5h19.6v4.2h-7.5v21.6h-4.5V88.6H4.1C4.1,88.6,4.1,84.5,4.1,84.5z"/>
	<path d="M24.9,110.2V84.5h4.5v10.6h11.4V84.5h4.5v25.8h-4.5V99.3H29.4v10.9L24.9,110.2L24.9,110.2z"/>
	<path d="M48.8,110.2V84.5h9.8c5.8,0,9.3,3,9.3,8c0,3.5-1.6,5.9-4.7,7.1l4.9,10.6h-4.9l-4.4-9.6h-5.5v9.6H48.8z M53.3,96.6h5.3
		c2.9,0,4.5-1.5,4.5-4.1c0-2.6-1.7-4-4.5-4h-5.3V96.6z"/>
	<path d="M70.2,110.2V84.5h16v4.2H74.7v6.6H85v4H74.7v6.8h11.5v4.2L70.2,110.2L70.2,110.2z"/>
	<path d="M88.8,110.2V84.5h16v4.2H93.3v6.6h10.3v4H93.3v6.8h11.5v4.2L88.8,110.2L88.8,110.2z"/>
	<path d="M115.4,110.2v-25h8.8c4.8,0,7.7,2.4,7.7,6.3c0,3-1.3,5-4,6c3,1,4.5,3.1,4.5,6.2c0,3.9-3,6.5-7.6,6.5H115.4z M117.1,86.8
		v10.1h7.6c3.5,0,5.5-1.9,5.5-5.2c0-3.1-2.2-4.9-5.8-4.9H117.1z M117.1,98.5v10.2h7.9c3.6,0,5.8-1.9,5.8-5.1c0-3.1-2.2-5.1-5.8-5.1
		L117.1,98.5L117.1,98.5z"/>
	<path d="M145.2,110.6c-6.9,0-11.8-5.3-11.8-12.9c0-7.6,4.9-12.9,11.8-12.9c6.9,0,11.8,5.3,11.8,12.9
		C157.1,105.3,152.2,110.6,145.2,110.6z M145.2,86.4c-5.9,0-10.1,4.7-10.1,11.3s4.2,11.3,10.1,11.3c6,0,10.1-4.7,10.1-11.3
		S151.2,86.4,145.2,86.4z"/>
	<path d="M159.6,110.2v-25h7c7.6,0,12.6,5,12.6,12.5s-5,12.5-12.6,12.5H159.6z M161.3,86.8v21.9h5.3c6.6,0,10.9-4.3,10.9-10.9
		c0-6.7-4.2-10.9-10.9-10.9L161.3,86.8L161.3,86.8z"/>
	<path d="M177.3,85.2h1.9l6.7,11.6c0.2,0.4,0.4,0.8,0.7,1.3c0.3-0.6,0.2-0.4,0.7-1.3l6.6-11.6h1.9l-8.3,14.3v10.7h-1.7V99.5
		L177.3,85.2z"/>
</g>
</svg>
