<?xml version="1.0" encoding="utf-8"?>
<!-- Generator: Adobe Illustrator 23.0.2, SVG Export Plug-In . SVG Version: 6.00 Build 0)  -->
<svg version="1.1" id="图层_1" xmlns="http://www.w3.org/2000/svg" xmlns:xlink="http://www.w3.org/1999/xlink" x="0px" y="0px"
	 viewBox="0 0 200 200" style="enable-background:new 0 0 200 200;" xml:space="preserve">
<style type="text/css">
	.st0{fill:#FFFFFF;}
	.st1{stroke:#FFFFFF;stroke-miterlimit:10;}
</style>
<g>
	<path class="st0" d="M57.33,94.68h8.71v1.85h-3.35v9.61h-2.01v-9.61h-3.35V94.68z"/>
	<path class="st0" d="M66.59,106.13V94.68h2.01v4.73h5.08v-4.73h2.01v11.46h-2.01v-4.86H68.6v4.86H66.59z"/>
	<path class="st0" d="M77.23,106.13V94.68h4.37c2.6,0,4.12,1.32,4.12,3.57c0,1.54-0.72,2.63-2.07,3.18l2.18,4.7h-2.19l-1.94-4.28
		h-2.46v4.28H77.23z M79.23,100.08h2.37c1.27,0,2.02-0.67,2.02-1.83c0-1.14-0.75-1.79-2.02-1.79h-2.37V100.08z"/>
	<path class="st0" d="M86.74,106.13V94.68h7.11v1.85h-5.11v2.95h4.58v1.77h-4.58v3.04h5.11v1.85H86.74z"/>
	<path class="st0" d="M95.04,106.13V94.68h7.12v1.85h-5.11v2.95h4.58v1.77h-4.58v3.04h5.11v1.85H95.04z"/>
	<path class="st0" d="M106.88,106.13V95.01h3.92c2.12,0,3.42,1.07,3.42,2.82c0,1.33-0.58,2.21-1.77,2.68
		c1.35,0.46,2.02,1.36,2.02,2.74c0,1.74-1.35,2.88-3.38,2.88H106.88z M107.64,95.7v4.51h3.39c1.54,0,2.43-0.86,2.43-2.32
		c0-1.38-0.96-2.19-2.6-2.19H107.64z M107.64,100.9v4.54h3.5c1.61,0,2.57-0.86,2.57-2.29c0-1.39-0.97-2.26-2.57-2.26H107.64z"/>
	<path class="st0" d="M120.14,106.32c-3.09,0-5.25-2.38-5.25-5.75s2.18-5.75,5.25-5.75c3.09,0,5.27,2.38,5.27,5.75
		S123.23,106.32,120.14,106.32z M120.14,95.54c-2.63,0-4.48,2.07-4.48,5.03s1.85,5.03,4.48,5.03c2.65,0,4.5-2.07,4.5-5.03
		S122.79,95.54,120.14,95.54z"/>
	<path class="st0" d="M126.53,106.13V95.01h3.12c3.37,0,5.61,2.22,5.61,5.56s-2.24,5.56-5.61,5.56H126.53z M127.28,95.7v9.75h2.37
		c2.93,0,4.84-1.91,4.84-4.87c0-2.98-1.88-4.87-4.84-4.87H127.28z"/>
	<path class="st0" d="M134.42,95.01h0.86l2.98,5.14c0.11,0.19,0.2,0.36,0.31,0.6c0.14-0.28,0.09-0.2,0.31-0.6l2.95-5.14h0.83
		l-3.71,6.36v4.76h-0.75v-4.76L134.42,95.01z"/>
</g>
</svg>
